<?xml version="1.0" standalone="no"?><!DOCTYPE svg PUBLIC "-//W3C//DTD SVG 1.1//EN" "http://www.w3.org/Graphics/SVG/1.1/DTD/svg11.dtd"><svg t="1735373126393" class="icon" viewBox="0 0 1024 1024" version="1.1" xmlns="http://www.w3.org/2000/svg" p-id="33664" xmlns:xlink="http://www.w3.org/1999/xlink" width="200" height="200"><path d="M944.73275029 427.2875l-49.8375 15.90000029c-13.12499971 5.24999971-28.83750029-2.62500029-34.0875-15.90000029-5.24999971-13.23749971 2.62500029-29.09999971 15.75-34.425l49.79999971-15.8625c13.12499971-5.2875 28.87499971 2.62500029 34.12500029 15.8625 5.21250029 15.90000029-2.62500029 31.79999971-15.75 34.425zM147.59524971 387.575c13.12499971 5.2875 20.99999971 18.52499971 15.75 34.425-5.24999971 10.575-18.37500029 18.52499971-34.12499942 15.8625L79.49525029 422a26.55 26.55 0 0 1-15.75-34.425c5.24999971-13.23749971 18.37500029-21.15 34.12499942-15.8625l49.80000058 15.8625z m605.7-227.62500029c7.875-10.61250029 23.58749971-13.23749971 36.675-5.2875 10.50000029 7.91250029 13.12499971 23.81249971 5.25000058 37.05000029l-31.46250058 42.37499971c-7.875 10.575-23.58749971 13.20000029-36.71249942 5.25000058-10.50000029-7.91250029-13.12499971-26.4375-5.25000058-37.05000029l31.5-42.37499971zM263.02024971 231.425l-31.5-45c-7.875-10.61250029-5.24999971-26.47500029 5.25000058-37.08749971 13.12499971-7.91250029 28.87499971-5.24999971 36.74999971 7.94999971l31.42500029 42.37499971c7.875 10.575 5.24999971 29.09999971-5.25000058 37.05000029-13.12499971 7.94999971-28.83750029 5.2875-36.675-5.2875z m225.48750029-90V88.47500029c0-15.90000029 10.50000029-26.47500029 26.2125-26.47500029 15.75 0 26.25000029 10.575 26.25000029 26.47500029v52.94999971c0 15.8625-10.50000029 26.47500029-26.25000029 26.47500029-15.75 0-26.25000029-10.61250029-26.25000029-26.47500029z m288.37500029 397.05000029v264.7125H252.55774971v-264.75000029c0-145.575 117.97499971-264.67499971 262.20000058-264.67499971 144.18749971 0 262.19999971 119.09999971 262.19999971 264.7125z m-297.86250058 192.86249942c-33.71249971-20.40000029-45.9-57.7125-29.32499971-89.62499971 7.3125 14.7375 23.24999971 25.23750029 42.075 27.74999971-20.88749971-31.42500029-13.8375-70.68750029 17.2125-95.5125 0 43.2 71.36250029 73.125 71.36250029 97.65a147.52500029 147.52500029 0 0 1-21.00000058 59.21250029c56.66249971-6.22500029 103.3875-40.275 118.53750058-86.43750029a127.61250029 127.61250029 0 0 1-48.45000058 30.9375c30.22499971-16.65 48.41250029-44.92500029 48.45000058-75.22499971 0-24.525-19.125-33.59999971-29.96250029-46.42499971-10.83750029-12.78749971 0-36.26250029 0-36.26250029-14.5125 6.4125-23.24999971 19.35-22.31250029 33.075-2.62500029 12.30000029-7.5375 24.1875-14.625 35.2125 0-89.62499971-51.6375-139.79999971-51.6375-160.04999971 1.35-16.12500029 7.9875-31.6125 19.125-44.81250029-94.87500029 10.19999971-164.17500029 80.1-158.7375 160.04999971-17.84999971-8.02500029-20.3625-40.53750029-20.3625-40.53749942-48.67499971 39.825-61.72499971 101.1375-32.5125 152.58749942a349.94999971 349.94999971 0 0 1-36.37499942-18.675c12.75000029 58.6125 75.52500029 100.19999971 146.62499942 97.0875h1.9125z m-278.92499942 177.75v-52.9875h629.24999942v52.95000058A52.875 52.875 0 0 1 776.92024971 962H252.52025029a52.875 52.875 0 0 1-52.425-52.94999971z" p-id="33665" fill="#707070"></path></svg>