<?xml version="1.0" standalone="no"?><!DOCTYPE svg PUBLIC "-//W3C//DTD SVG 1.1//EN" "http://www.w3.org/Graphics/SVG/1.1/DTD/svg11.dtd"><svg t="1735374237137" class="icon" viewBox="0 0 1024 1024" version="1.1" xmlns="http://www.w3.org/2000/svg" p-id="38009" xmlns:xlink="http://www.w3.org/1999/xlink" width="200" height="200"><path d="M461.482667 309.873778v252.700444l214.869333 127.431111 38.912-64.739555-177.948444-105.642667V309.873778H461.482667z m505.457777 101.034666V57.116444L833.536 190.577778A451.697778 451.697778 0 0 0 512 57.116444a454.883556 454.883556 0 1 0 454.883556 454.940445H865.848889A354.190222 354.190222 0 0 1 512 865.848889 354.190222 354.190222 0 0 1 158.321778 512 354.190222 354.190222 0 0 1 512 158.321778c97.507556 0 186.026667 39.879111 250.197333 103.537778l-149.048889 149.105777h353.735112z" fill="#707070" p-id="38010"></path></svg>