<?xml version="1.0" standalone="no"?><!DOCTYPE svg PUBLIC "-//W3C//DTD SVG 1.1//EN" "http://www.w3.org/Graphics/SVG/1.1/DTD/svg11.dtd"><svg t="1735526670319" class="icon" viewBox="0 0 1369 1024" version="1.1" xmlns="http://www.w3.org/2000/svg" p-id="42077" xmlns:xlink="http://www.w3.org/1999/xlink" width="267.3828125" height="200"><path d="M1087.036517 844.026576h-1014.529676a72.466405 72.466405 0 0 1-72.466406-72.466405V72.466405a72.466405 72.466405 0 0 1 72.466406-72.466405h1014.529676a72.466405 72.466405 0 0 1 72.466405 72.466405v699.093766a72.466405 72.466405 0 0 1-72.466405 72.466405zM72.506841 62.114062a10.352344 10.352344 0 0 0-10.352344 10.352343v699.093766a10.352344 10.352344 0 0 0 10.352344 10.352344h1014.529676a10.352344 10.352344 0 0 0 10.352343-10.352344V72.466405a10.352344 10.352344 0 0 0-10.352343-10.352343z" fill="#707070" p-id="42078"></path><path d="M114.226785 124.228124m41.409375 0l1014.322629 0q41.409375 0 41.409375 41.409374l0 698.990242q0 41.409375-41.409375 41.409375l-1014.322629 0q-41.409375 0-41.409375-41.409375l0-698.990242q0-41.409375 41.409375-41.409374Z" fill="#707070" opacity=".3" p-id="42079"></path><path d="M199.63362 264.19181v315.642957h-51.761718V264.19181zM515.690672 304.87652c26.502 29.607703 39.856523 68.946609 39.856523 117.602624s-13.354523 87.477304-39.856523 117.085006-65.840906 46.482023-113.87578 46.482023-86.649116-15.942609-113.87578-46.896117-39.338906-68.946609-39.338906-116.670912 12.836906-87.06321 39.338906-117.18853c27.433711-31.781695 65.426812-47.31021 113.87578-47.310211s86.027976 15.528515 113.87578 46.896117z m-190.06903 31.781695c-17.18489 21.222304-25.570289 49.587726-25.570288 85.820929s8.385398 64.081007 25.570288 85.303311a105.800952 105.800952 0 0 0 151.661835 1.345805c17.18489-20.704687 26.087906-49.587726 26.087906-86.649116s-8.903016-66.358523-26.087906-87.580827-42.858703-31.057031-75.572109-31.057031a93.171093 93.171093 0 0 0-76.089726 32.816929zM656.068451 264.19181v315.642957h-51.761718V264.19181zM972.125502 304.87652c26.605523 29.607703 39.856523 68.946609 39.856523 117.602624s-13.251 87.477304-39.856523 117.085006-65.840906 46.482023-113.87578 46.482023-86.649116-15.942609-113.87578-46.896117-39.338906-68.946609-39.338905-116.670912 12.836906-87.06321 39.338905-117.18853c27.433711-31.781695 65.426812-47.31021 113.87578-47.310211s86.131499 15.528515 113.87578 46.896117z m-190.069029 31.781695c-17.18489 21.222304-25.570289 49.587726-25.570289 85.820929s8.385398 64.081007 25.570289 85.303311a105.800952 105.800952 0 0 0 151.661834 1.345805c17.288414-20.704687 26.087906-49.587726 26.087906-86.649116s-8.799492-66.358523-26.087906-87.580827-42.858703-31.057031-75.572108-31.057031a93.171093 93.171093 0 0 0-76.089726 32.816929z" fill="#707070" p-id="42080"></path></svg>