<?xml version="1.0" standalone="no"?><!DOCTYPE svg PUBLIC "-//W3C//DTD SVG 1.1//EN" "http://www.w3.org/Graphics/SVG/1.1/DTD/svg11.dtd"><svg t="1735308905001" class="icon" viewBox="0 0 1024 1024" version="1.1" xmlns="http://www.w3.org/2000/svg" p-id="8588" xmlns:xlink="http://www.w3.org/1999/xlink" width="200" height="200"><path d="M463.936 912v-32a48 48 0 0 1 96 0v32a48 48 0 0 1-96 0z m296.896-83.2l-22.592-22.72a48 48 0 0 1 67.904-67.904l22.72 22.592a48.128 48.128 0 0 1-68.032 68.032z m-565.632 0a48.192 48.192 0 0 1 0-68.032l22.72-22.592a48 48 0 0 1 67.84 67.904l-22.592 22.72a48.192 48.192 0 0 1-34.048 14.08 47.68 47.68 0 0 1-33.92-14.016z m316.736-28.864a288 288 0 1 1 288-288A288.384 288.384 0 0 1 512 800z m-192-288a192.32 192.32 0 0 0 192 192v-384A192 192 0 0 0 320 512z m559.936 48.128a48.064 48.064 0 0 1 0-96h32a48.064 48.064 0 0 1 0 96z m-768 0a48.064 48.064 0 0 1 0-96h32a48.064 48.064 0 0 1 0 96z m626.24-274.304a48.128 48.128 0 0 1 0-67.904l22.72-22.592a48 48 0 0 1 67.904 67.904l-22.72 22.592a48 48 0 0 1-67.904 0z m-520.32 0l-22.72-22.592a48.064 48.064 0 1 1 68.032-67.904l22.592 22.592a48 48 0 1 1-67.84 67.904z m246.016-141.824v-32a48 48 0 0 1 96 0v32a48 48 0 1 1-96 0z" fill="#585858" p-id="8589"></path></svg>