<?xml version="1.0" standalone="no"?><!DOCTYPE svg PUBLIC "-//W3C//DTD SVG 1.1//EN" "http://www.w3.org/Graphics/SVG/1.1/DTD/svg11.dtd"><svg t="1735530839326" class="icon" viewBox="0 0 1024 1024" version="1.1" xmlns="http://www.w3.org/2000/svg" p-id="43125" xmlns:xlink="http://www.w3.org/1999/xlink" width="200" height="200"><path d="M248.832 775.168c13.312 13.312 34.816 13.312 48.128 0l44.373333-44.373333 44.032 44.032c13.312 13.312 34.816 13.312 48.128 0l44.373334-44.032 44.032 44.032c13.312 13.312 34.816 13.312 48.128 0l44.373333-44.032 44.032 44.032c6.826667 6.826667 15.36 10.24 24.234667 10.24s17.408-3.413333 24.234666-9.898667l68.266667-68.266667a33.9968 33.9968 0 1 0-48.128-48.128L682.666667 702.805333l-44.032-44.032a33.9968 33.9968 0 0 0-48.128 0L546.133333 702.805333l-44.032-44.032a33.9968 33.9968 0 0 0-48.128 0L409.6 702.805333l-44.032-44.032a33.9968 33.9968 0 0 0-48.128 0L273.066667 702.805333 229.034667 658.773333a33.9968 33.9968 0 1 0-48.128 48.128l67.925333 68.266667z m0-204.8c13.312 13.312 34.816 13.312 48.128 0l44.373333-44.373333 44.032 44.032c13.312 13.312 34.816 13.312 48.128 0l44.373334-44.032 44.032 44.032c13.312 13.312 34.816 13.312 48.128 0l44.373333-44.032 44.032 44.032c6.826667 6.826667 15.36 10.24 24.234667 10.24s17.408-3.413333 24.234666-9.898667l68.266667-68.266667a33.9968 33.9968 0 1 0-48.128-48.128L682.666667 498.005333l-44.032-44.032a33.9968 33.9968 0 0 0-48.128 0L546.133333 498.005333l-44.032-44.032a33.9968 33.9968 0 0 0-48.128 0L409.6 498.005333l-44.032-44.032a33.9968 33.9968 0 0 0-48.128 0L273.066667 498.005333 229.034667 453.973333a33.9968 33.9968 0 1 0-48.128 48.128l67.925333 68.266667zM989.866667 238.933333V170.666667h-102.4V102.4h-68.266667v785.066667H136.533333V102.4H68.266667v853.333333h921.6v-68.266666h-102.4v-170.666667h68.266666v-68.266667h-68.266666v-170.666666h102.4v-68.266667h-102.4V238.933333h102.4z" p-id="43126" fill="#707070"></path></svg>