<?xml version="1.0" standalone="no"?><!DOCTYPE svg PUBLIC "-//W3C//DTD SVG 1.1//EN" "http://www.w3.org/Graphics/SVG/1.1/DTD/svg11.dtd"><svg t="1735372924992" class="icon" viewBox="0 0 1024 1024" version="1.1" xmlns="http://www.w3.org/2000/svg" p-id="31309" xmlns:xlink="http://www.w3.org/1999/xlink" width="200" height="200"><path d="M640 661.333333c-8.533333 0-12.8 0-17.066667-4.266666L512 601.6l-110.933333 55.466667c-12.8 8.533333-29.866667 4.266667-42.666667 0-8.533333-8.533333-17.066667-25.6-17.066667-38.4v-128c0-25.6 17.066667-42.666667 42.666667-42.666667s42.666667 17.066667 42.666667 42.666667v59.733333l68.266666-34.133333c12.8-4.266667 25.6-4.266667 38.4 0l68.266667 34.133333v-59.733333c0-25.6 17.066667-42.666667 42.666667-42.666667s42.666667 17.066667 42.666666 42.666667v128c0 12.8-8.533333 29.866667-21.333333 38.4-8.533333 4.266667-17.066667 4.266667-25.6 4.266666zM512 149.333333c-25.6 0-42.666667-17.066667-42.666667-42.666666V42.666667c0-25.6 17.066667-42.666667 42.666667-42.666667s42.666667 17.066667 42.666667 42.666667v64c0 25.6-17.066667 42.666667-42.666667 42.666666zM196.266667 281.6c-12.8 0-21.333333-4.266667-29.866667-12.8L119.466667 221.866667c-17.066667-17.066667-17.066667-42.666667 0-59.733334 17.066667-17.066667 42.666667-17.066667 59.733333 0l46.933333 46.933334c17.066667 17.066667 17.066667 42.666667 0 59.733333-8.533333 8.533333-21.333333 12.8-29.866666 12.8zM827.733333 281.6c-12.8 0-21.333333-4.266667-29.866666-12.8-17.066667-17.066667-17.066667-42.666667 0-59.733333l46.933333-46.933334c17.066667-17.066667 42.666667-17.066667 59.733333 0 17.066667 17.066667 17.066667 42.666667 0 59.733334l-46.933333 46.933333c-8.533333 8.533333-17.066667 12.8-29.866667 12.8z" p-id="31310" fill="#707070"></path><path d="M571.733333 1024h-119.466666c-29.866667 0-55.466667-21.333333-55.466667-51.2L384 891.733333c-140.8-55.466667-230.4-187.733333-230.4-337.066666 0-200.533333 162.133333-362.666667 362.666667-362.666667s362.666667 162.133333 362.666666 362.666667c0 149.333333-89.6 281.6-230.4 337.066666l-17.066666 85.333334c-4.266667 25.6-29.866667 46.933333-59.733334 46.933333z m-25.6-64v4.266667-4.266667z m-68.266666-4.266667c0 4.266667 0 4.266667 0 0z m-4.266667-17.066666h72.533333l17.066667-85.333334c4.266667-17.066667 12.8-29.866667 29.866667-34.133333 115.2-34.133333 196.266667-140.8 196.266666-264.533333 0-153.6-123.733333-277.333333-277.333333-277.333334S234.666667 401.066667 234.666667 554.666667c0 123.733333 76.8 230.4 196.266666 264.533333 17.066667 4.266667 25.6 17.066667 29.866667 34.133333l12.8 85.333334z" p-id="31311" fill="#707070"></path></svg>