<?xml version="1.0" standalone="no"?><!DOCTYPE svg PUBLIC "-//W3C//DTD SVG 1.1//EN" "http://www.w3.org/Graphics/SVG/1.1/DTD/svg11.dtd"><svg t="1735308731461" class="icon" viewBox="0 0 1024 1024" version="1.1" xmlns="http://www.w3.org/2000/svg" p-id="7554" xmlns:xlink="http://www.w3.org/1999/xlink" width="200" height="200"><path d="M512 64S160 232 160 512c0 184 140.8 334.4 320 350.4V928c0 17.6 14.4 32 32 32s32-14.4 32-32v-65.6c179.2-16 320-166.4 320-350.4C864 251.2 512 64 512 64z m32 734.4v-129.6c3.2-1.6 6.4-3.2 9.6-6.4l94.4-94.4c12.8-12.8 12.8-33.6 0-46.4-12.8-12.8-33.6-12.8-46.4 0L544 577.6V416c0-17.6-14.4-32-32-32s-32 14.4-32 32v97.6l-56-56c-12.8-12.8-33.6-12.8-46.4 0-12.8 12.8-12.8 33.6 0 46.4l94.4 94.4c3.2 3.2 6.4 4.8 9.6 6.4v193.6c-144-16-256-137.6-256-286.4C224 291.2 512 144 512 144s288 169.6 288 368c0 148.8-112 270.4-256 286.4z" fill="#333333" p-id="7555"></path></svg>