<?xml version="1.0" standalone="no"?><!DOCTYPE svg PUBLIC "-//W3C//DTD SVG 1.1//EN" "http://www.w3.org/Graphics/SVG/1.1/DTD/svg11.dtd"><svg t="1735371924632" class="icon" viewBox="0 0 1024 1024" version="1.1" xmlns="http://www.w3.org/2000/svg" p-id="17897" xmlns:xlink="http://www.w3.org/1999/xlink" width="200" height="200"><path d="M372.572875 967.346009h287.583364v56.653991H372.572875z m398.572675-775.731744l80.045286-80.130532 40.082315 40.048217-80.130532 80.130532zM185.203823 108.909327l78.425627 82.790184-39.212814 39.212813-82.790183-78.425627z m697.186773 344.237355h108.926376V509.766575h-108.926376z m-849.690519 0h108.943425V509.766575H32.700077z m453.16373-453.163731h56.653991v108.943425h-56.653991z m26.153242 169.944924a314.333322 314.333322 0 0 0-313.702507 309.372048c0 117.63844 56.653991 226.581865 169.944923 278.8713v148.156239h283.235857v-148.156239c113.290933-52.289434 169.944924-156.851254 169.944923-278.8713a310.565482 310.565482 0 0 0-309.440245-309.354999z" fill="#7ED321" p-id="17898"></path></svg>