<?xml version="1.0" standalone="no"?><!DOCTYPE svg PUBLIC "-//W3C//DTD SVG 1.1//EN" "http://www.w3.org/Graphics/SVG/1.1/DTD/svg11.dtd"><svg t="1735373540657" class="icon" viewBox="0 0 1024 1024" version="1.1" xmlns="http://www.w3.org/2000/svg" p-id="34799" xmlns:xlink="http://www.w3.org/1999/xlink" width="200" height="200"><path d="M539 909.6l-0.7-561.9c0-14.5-11.8-26.3-26.4-26.3-14.5 0-26.3 11.8-26.3 26.4l0.7 561.9c0 14.5 11.8 26.3 26.4 26.3 14.5 0 26.3-11.8 26.3-26.4z" p-id="34800" fill="#707070"></path><path d="M625.1 763L493.3 894.8c-10.3 10.3-10.3 27 0 37.3 10.3 10.3 27 10.3 37.3 0l131.8-131.8c10.3-10.3 10.3-27 0-37.3-10.4-10.3-27-10.3-37.3 0z" p-id="34801" fill="#707070"></path><path d="M530.6 894.8L398.8 763c-10.3-10.3-27-10.3-37.3 0-10.3 10.3-10.3 27 0 37.3l131.8 131.8c10.3 10.3 27 10.3 37.3 0 10.3-10.4 10.3-27 0-37.3z m-217-651c-9.1-1-17.4-1.6-25.6-1.6-123.7 0-224 100.3-224 224s100.3 224.1 223.9 224.1c14.5 0 26.3-11.8 26.3-26.3s-11.8-26.3-26.3-26.3c-94.7 0-171.3-76.7-171.3-171.3S193.3 295 287.9 295c6.1 0 12.5 0.4 19.7 1.2 14.5 1.6 27.5-8.8 29.1-23.2 1.8-14.5-8.7-27.5-23.1-29.2z" p-id="34802" fill="#707070"></path><path d="M771.4 290.6c-21-118.7-124.5-206.4-246.2-206.4-111.3 0-208.2 73.2-239.7 178.3-4.2 13.9 3.7 28.6 17.6 32.8 13.9 4.2 28.6-3.7 32.8-17.6 24.9-82.9 101.5-140.8 189.3-140.8 96.2 0 177.8 69.2 194.4 162.9 2.5 14.3 16.2 23.9 30.5 21.3 14.3-2.5 23.9-16.1 21.3-30.5z" p-id="34803" fill="#707070"></path><path d="M749.2 690.4C865.6 690.4 960 596 960 479.6s-94.4-210.8-210.8-210.8c-2.4 0.1-2.4 0.1-3.7 0.1h-0.6c-14.5 0.3-26.1 12.4-25.8 26.9s12.3 26.1 26.9 25.8c1.9-0.1 1.9-0.1 3-0.2h0.2c0.5 0 0.5 0 0 0 87.3 0 158.1 70.8 158.1 158.1s-70.8 158.1-158.1 158.1c-14.5 0-26.3 11.8-26.3 26.3-0.1 14.7 11.7 26.5 26.3 26.5z" p-id="34804" fill="#707070"></path></svg>