<?xml version="1.0" standalone="no"?><!DOCTYPE svg PUBLIC "-//W3C//DTD SVG 1.1//EN" "http://www.w3.org/Graphics/SVG/1.1/DTD/svg11.dtd"><svg t="1735372447311" class="icon" viewBox="0 0 1024 1024" version="1.1" xmlns="http://www.w3.org/2000/svg" p-id="22344" xmlns:xlink="http://www.w3.org/1999/xlink" width="200" height="200"><path d="M524.047059 909.552941c-102.4 0-204.8-42.164706-277.082353-114.447059s-114.447059-174.682353-114.447059-277.082353 36.141176-204.8 114.447059-277.082353S421.647059 126.494118 524.047059 126.494118s198.776471 42.164706 277.082353 114.447058 114.447059 174.682353 114.447059 277.082353-42.164706 204.8-114.447059 277.082353-174.682353 114.447059-277.082353 114.447059z m0-740.894117c-192.752941 0-349.364706 156.611765-349.364706 349.364705s156.611765 349.364706 349.364706 349.364706 349.364706-156.611765 349.364706-349.364706-156.611765-349.364706-349.364706-349.364705z" fill="#515151" p-id="22345"></path><path d="M771.011765 505.976471c-6.023529 0-12.047059-6.023529-12.047059-12.047059 0-72.282353-24.094118-132.517647-78.305882-168.658824-6.023529-6.023529-6.023529-12.047059-6.02353-12.047059l12.047059-6.023529c30.117647 18.070588 54.211765 42.164706 66.258823 72.282353 18.070588 30.117647 24.094118 72.282353 24.094118 114.447059 0 6.023529-6.023529 12.047059-6.023529 12.047059z m-66.258824-18.070589c-6.023529 0-12.047059-6.023529-12.047059-12.047058 0-36.141176-12.047059-72.282353-42.164706-84.329412-6.023529-6.023529-6.023529-12.047059-6.023529-12.047059l12.047059-6.023529c30.117647 18.070588 54.211765 60.235294 48.188235 102.4 6.023529 12.047059 6.023529 12.047059 0 12.047058zM602.352941 313.223529c-24.094118-12.047059-54.211765-18.070588-84.329412-18.070588v-18.070588c30.117647 0 60.235294 6.023529 90.352942 18.070588 6.023529 0-6.023529 18.070588-6.02353 18.070588zM277.082353 487.905882c-6.023529 0-12.047059 0-12.047059-6.023529 0-18.070588 0-36.141176 6.02353-48.188235 12.047059-60.235294 54.211765-114.447059 108.423529-150.588236 6.023529-6.023529 12.047059 0 12.047059 6.02353 6.023529 6.023529 0 12.047059-6.02353 12.047059-48.188235 24.094118-84.329412 78.305882-96.37647 132.517647 0 18.070588-6.023529 30.117647-6.02353 48.188235 0 6.023529 0 6.023529-6.023529 6.023529z m60.235294-24.094117c-6.023529 0-12.047059-6.023529-12.047059-12.047059 0-12.047059 0-18.070588 6.02353-30.117647 6.023529-30.117647 30.117647-60.235294 60.235294-78.305883 6.023529-6.023529 12.047059 0 12.047059 6.02353 6.023529 6.023529 0 12.047059-6.02353 12.047059-24.094118 12.047059-42.164706 42.164706-48.188235 66.258823v24.094118c0 6.023529-6.023529 12.047059-12.047059 12.047059zM512 783.058824c-48.188235 0-90.352941-12.047059-132.517647-42.164706-6.023529-6.023529-6.023529-12.047059 0-12.047059s12.047059-6.023529 12.047059 0c36.141176 24.094118 78.305882 36.141176 120.470588 36.141176 36.141176 0 66.258824-6.023529 96.376471-24.094117 6.023529 0 12.047059 0 12.047058 6.023529s0 12.047059-6.023529 12.047059c-30.117647 18.070588-66.258824 24.094118-102.4 24.094118z" fill="#515151" p-id="22346"></path><path d="M505.976471 740.894118c-24.094118 0-42.164706-6.023529-60.235295-18.070589-6.023529-6.023529-6.023529-12.047059 0-12.047058 6.023529-6.023529 12.047059-6.023529 12.047059 0 18.070588 12.047059 36.141176 18.070588 54.211765 18.070588 12.047059 0 30.117647-6.023529 42.164706-12.047059 6.023529 0 12.047059 0 12.047059 6.023529s0 12.047059-6.02353 12.047059c-18.070588 0-36.141176 6.023529-54.211764 6.02353z" fill="#515151" p-id="22347"></path><path d="M897.505882 999.905882H138.541176c-54.211765 0-102.4-42.164706-102.4-102.4V132.517647c0-54.211765 42.164706-102.4 102.4-102.4H903.529412c54.211765 0 102.4 42.164706 102.4 102.4v764.988235c-6.023529 54.211765-54.211765 102.4-108.42353 102.4zM138.541176 78.305882c-30.117647 0-60.235294 24.094118-60.235294 60.235294V903.529412c0 30.117647 24.094118 60.235294 60.235294 60.235294H903.529412c30.117647 0 60.235294-24.094118 60.235294-60.235294V132.517647c0-30.117647-24.094118-60.235294-60.235294-60.235294-6.023529 6.023529-764.988235 6.023529-764.988236 6.023529z" fill="#515151" p-id="22348"></path><path d="M596.329412 307.2c30.117647 96.376471-42.164706 204.8-78.305883 216.847059 18.070588-138.541176-36.141176-120.470588-54.211764-174.682353-6.023529-30.117647-6.023529-72.282353 42.164706-84.329412 42.164706-12.047059 72.282353 0 90.352941 42.164706z" fill="#515151" p-id="22349"></path><path d="M493.929412 548.141176l6.023529-30.117647c6.023529-42.164706 6.023529-66.258824 0-84.329411-12.047059-18.070588-18.070588-24.094118-24.094117-36.141177-12.047059-12.047059-24.094118-24.094118-30.117648-42.164706-18.070588-54.211765 6.023529-96.376471 54.211765-114.447059 54.211765-18.070588 96.376471 6.023529 114.447059 60.235295 18.070588 66.258824 0 126.494118-18.070588 156.611764-18.070588 42.164706-48.188235 72.282353-72.282353 84.329412l-30.117647 6.023529zM481.882353 343.341176c6.023529 12.047059 12.047059 18.070588 24.094118 24.094118 6.023529 12.047059 18.070588 24.094118 30.117647 54.211765 0 12.047059 6.023529 30.117647 6.023529 48.188235 6.023529-12.047059 12.047059-18.070588 18.070588-36.141176 12.047059-24.094118 30.117647-72.282353 12.047059-126.494118-12.047059-30.117647-30.117647-42.164706-60.235294-30.117647-18.070588 12.047059-36.141176 24.094118-30.117647 66.258823z" fill="#515151" p-id="22350"></path><path d="M656.564706 698.729412c-96.376471-30.117647-150.588235-144.564706-138.541177-180.705883 108.423529 90.352941 120.470588 36.141176 174.682353 48.188236 24.094118 6.023529 60.235294 30.117647 48.188236 84.329411-12.047059 36.141176-42.164706 60.235294-84.329412 48.188236z" fill="#515151" p-id="22351"></path><path d="M680.658824 722.823529c-6.023529 0-18.070588 0-30.117648-6.023529-66.258824-18.070588-102.4-66.258824-120.470588-96.376471-30.117647-36.141176-42.164706-78.305882-36.141176-108.423529 0-6.023529 6.023529-12.047059 12.047059-12.047059s12.047059 0 18.070588 6.02353c36.141176 24.094118 60.235294 36.141176 78.305882 42.164705 18.070588 6.023529 24.094118 0 36.141177 0 12.047059-6.023529 30.117647-6.023529 54.211764 0 54.211765 18.070588 78.305882 54.211765 60.235294 108.42353-6.023529 42.164706-36.141176 66.258824-72.282352 66.258823z m-18.070589-42.164705c30.117647 6.023529 48.188235-6.023529 60.235294-36.141177 6.023529-18.070588 6.023529-42.164706-36.141176-60.235294h-36.141177c-12.047059 6.023529-36.141176 6.023529-60.235294 0-12.047059 0-30.117647-6.023529-48.188235-18.070588l18.070588 36.141176c18.070588 24.094118 48.188235 60.235294 102.4 78.305883z" fill="#515151" p-id="22352"></path><path d="M295.152941 560.188235c72.282353-72.282353 198.776471-66.258824 222.870588-36.141176-132.517647 54.211765-84.329412 90.352941-126.494117 132.517647-18.070588 18.070588-54.211765 42.164706-96.376471 6.023529-24.094118-36.141176-30.117647-66.258824 0-102.4z" fill="#515151" p-id="22353"></path><path d="M343.341176 698.729412c-18.070588 0-42.164706-6.023529-60.235294-24.094118-36.141176-42.164706-42.164706-90.352941 0-126.494118 48.188235-48.188235 108.423529-60.235294 144.564706-60.235294 48.188235-6.023529 90.352941 6.023529 108.42353 24.094118 6.023529 0 6.023529 6.023529 6.023529 12.047059s-6.023529 12.047059-12.047059 18.070588c-36.141176 18.070588-60.235294 30.117647-72.282353 42.164706-12.047059 12.047059-12.047059 24.094118-18.070588 36.141176-6.023529 12.047059-6.023529 30.117647-24.094118 48.188236-24.094118 18.070588-48.188235 30.117647-72.282353 30.117647z m-30.117647-126.494118c-24.094118 24.094118-18.070588 48.188235 0 66.258824 12.047059 12.047059 36.141176 30.117647 66.258824 0 6.023529-12.047059 12.047059-18.070588 12.047059-30.117647 6.023529-18.070588 12.047059-36.141176 30.117647-54.211765 12.047059-12.047059 24.094118-24.094118 42.164706-30.117647H421.647059c-24.094118 0-72.282353 12.047059-108.42353 48.188235z" fill="#515151" p-id="22354"></path><path d="M463.811765 518.023529c0 30.117647 24.094118 54.211765 54.211764 54.211765s54.211765-24.094118 54.211765-54.211765-24.094118-54.211765-54.211765-54.211764c-30.117647 6.023529-54.211765 24.094118-54.211764 54.211764z" fill="#515151" p-id="22355"></path><path d="M518.023529 590.305882c-42.164706 0-72.282353-30.117647-72.282353-72.282353s30.117647-72.282353 72.282353-72.282353 72.282353 36.141176 72.282353 72.282353-30.117647 72.282353-72.282353 72.282353z m0-102.4c-18.070588 0-30.117647 12.047059-30.117647 30.117647s12.047059 30.117647 30.117647 30.117647 30.117647-12.047059 30.117647-30.117647-12.047059-30.117647-30.117647-30.117647zM108.423529 150.588235c0 24.094118 18.070588 42.164706 42.164706 42.164706 24.094118 0 42.164706-18.070588 42.164706-42.164706s-18.070588-42.164706-42.164706-42.164706c-24.094118 0-42.164706 18.070588-42.164706 42.164706zM855.341176 192.752941c0 12.047059 12.047059 18.070588 18.070589 18.070588s18.070588-12.047059 18.070588-18.070588-12.047059-18.070588-18.070588-18.070588-18.070588 6.023529-18.070589 18.070588z" fill="#515151" p-id="22356"></path><path d="M132.517647 192.752941c0 12.047059 12.047059 18.070588 18.070588 18.070588 12.047059 0 18.070588-12.047059 18.070589-18.070588 0-12.047059-12.047059-18.070588-18.070589-18.070588-12.047059 0-18.070588 6.023529-18.070588 18.070588zM837.270588 150.588235c0 24.094118 18.070588 42.164706 42.164706 42.164706 24.094118 0 42.164706-18.070588 42.164706-42.164706 0-24.094118-18.070588-42.164706-42.164706-42.164706-24.094118 0-42.164706 18.070588-42.164706 42.164706z" fill="#515151" p-id="22357"></path></svg>